<svg width="16" height="18" viewBox="0 0 16 18" fill="none" xmlns="http://www.w3.org/2000/svg">
<path d="M14.25 6.5H9.25V1.5H1.75V16.5H14.25V6.5ZM13.7325 5.25L10.5 2.0175V5.25H13.7325ZM1.125 0.25H10.5L15.5 5.25V17.125C15.5 17.2908 15.4342 17.4497 15.3169 17.5669C15.1997 17.6842 15.0408 17.75 14.875 17.75H1.125C0.95924 17.75 0.800269 17.6842 0.683058 17.5669C0.565848 17.4497 0.5 17.2908 0.5 17.125V0.875C0.5 0.70924 0.565848 0.550268 0.683058 0.433058C0.800269 0.315848 0.95924 0.25 1.125 0.25ZM4.25 9H11.75V10.25H4.25V9ZM4.25 5.25H7.375V6.5H4.25V5.25ZM4.25 12.75H11.75V14H4.25V12.75Z" fill="black"/>
</svg>
