<svg width="25" height="25" viewBox="0 0 25 25" fill="none" xmlns="http://www.w3.org/2000/svg">
<path d="M0 23.0769V1.92308C0 1.41305 0.202609 0.923903 0.563256 0.563256C0.923903 0.202609 1.41305 0 1.92308 0H23.0769C23.587 0 24.0761 0.202609 24.4367 0.563256C24.7974 0.923903 25 1.41305 25 1.92308V23.0769C25 23.587 24.7974 24.0761 24.4367 24.4367C24.0761 24.7974 23.587 25 23.0769 25H17.3077V15.8846H18.6731C18.9842 15.8846 19.2826 15.761 19.5026 15.541C19.7226 15.321 19.8462 15.0227 19.8462 14.7115V13.2308C19.8462 12.9196 19.7226 12.6213 19.5026 12.4013C19.2826 12.1813 18.9842 12.0577 18.6731 12.0577H17.3846V10.25C17.3846 8.63462 18.1154 8.63461 18.8462 8.63461H19.7885C19.9432 8.64099 20.0975 8.61329 20.2404 8.55348C20.3833 8.49366 20.5113 8.40319 20.6154 8.28846C20.7271 8.18207 20.8156 8.05364 20.8752 7.91131C20.9348 7.76897 20.9642 7.61582 20.9615 7.46154V6.03846C20.9667 5.88187 20.9409 5.72579 20.8857 5.57917C20.8304 5.43254 20.7469 5.29824 20.6397 5.18393C20.5325 5.06963 20.4039 4.97756 20.2611 4.91301C20.1184 4.84845 19.9643 4.81266 19.8077 4.80769H17.5962C16.9509 4.78343 16.308 4.89954 15.712 5.14799C15.1159 5.39645 14.5809 5.77133 14.1439 6.24674C13.7069 6.72215 13.3783 7.28675 13.1808 7.90156C12.9833 8.51637 12.9216 9.16672 13 9.80769V12.0577H11.7692C11.6136 12.0551 11.459 12.0836 11.3144 12.1414C11.1699 12.1992 11.0383 12.2852 10.9273 12.3944C10.8163 12.5036 10.7282 12.6338 10.668 12.7774C10.6079 12.921 10.5769 13.0751 10.5769 13.2308V14.7115C10.5769 14.8672 10.6079 15.0213 10.668 15.1649C10.7282 15.3085 10.8163 15.4387 10.9273 15.5479C11.0383 15.6571 11.1699 15.7431 11.3144 15.8009C11.459 15.8587 11.6136 15.8872 11.7692 15.8846H13V25H1.92308C1.41305 25 0.923903 24.7974 0.563256 24.4367C0.202609 24.0761 0 23.587 0 23.0769Z" fill="white"/>
</svg>
