<svg width="18" height="18" viewBox="0 0 18 18" fill="none" xmlns="http://www.w3.org/2000/svg">
<path d="M16.84 14.3242C16.9435 13.9798 17 13.6136 17 13.2353V4.76471C17 3.76624 16.6034 2.80868 15.8973 2.10266C15.1913 1.39664 14.2338 1 13.2353 1H4.76471C3.76624 1 2.80868 1.39664 2.10266 2.10266C1.39664 2.80868 1 3.76624 1 4.76471V13.3012C1.01728 14.2882 1.42153 15.2289 2.12568 15.9207C2.82984 16.6126 3.77755 17.0002 4.76471 17H13.2353L13.3454 16.9981M16.84 14.3242L16.7572 14.2264L14.4362 11.4254C14.2601 11.2129 14.0395 11.0418 13.7899 10.9241C13.5403 10.8064 13.2678 10.745 12.9919 10.7443C12.7159 10.7436 12.4432 10.8035 12.193 10.9199C11.9428 11.0363 11.7212 11.2063 11.544 11.4179L10.3092 12.8918L10.1078 13.1374M16.84 14.3242C16.6117 15.0803 16.1514 15.7445 15.5242 16.2245C14.8971 16.7045 14.1349 16.9752 13.3454 16.9981M10.1078 13.1374L13.2579 16.8984L13.3454 16.9981M10.1078 13.1374L7.07059 9.51106C6.89391 9.3002 6.67316 9.13063 6.42389 9.01428C6.17461 8.89793 5.90286 8.83764 5.62776 8.83764C5.35267 8.83764 5.08092 8.89793 4.83164 9.01428C4.58237 9.13063 4.36162 9.3002 4.18494 9.51106L1.16753 13.1129L1.00094 13.3021" stroke="black" stroke-width="1.3" stroke-linecap="round" stroke-linejoin="round"/>
<path d="M11.9088 7.50261C12.6885 7.50261 13.3206 6.87054 13.3206 6.09084C13.3206 5.31115 12.6885 4.67908 11.9088 4.67908C11.1291 4.67908 10.4971 5.31115 10.4971 6.09084C10.4971 6.87054 11.1291 7.50261 11.9088 7.50261Z" fill="black"/>
</svg>
