<svg width="46" height="46" viewBox="0 0 46 46" fill="none" xmlns="http://www.w3.org/2000/svg">
<path d="M43.8332 45.9167H35.4998C34.9473 45.9167 34.4174 45.6972 34.0267 45.3065C33.636 44.9158 33.4165 44.3859 33.4165 43.8334V2.16671C33.4165 1.61417 33.636 1.08427 34.0267 0.693568C34.4174 0.302867 34.9473 0.083374 35.4998 0.083374H43.8332C44.3857 0.083374 44.9156 0.302867 45.3063 0.693568C45.697 1.08427 45.9165 1.61417 45.9165 2.16671V43.8334C45.9165 44.3859 45.697 44.9158 45.3063 45.3065C44.9156 45.6972 44.3857 45.9167 43.8332 45.9167Z" fill="black"/>
<path opacity="0.25" d="M10.5002 45.9167H2.16683C1.6143 45.9167 1.08439 45.6972 0.69369 45.3065C0.302989 44.9158 0.0834961 44.3859 0.0834961 43.8334V27.1667C0.0834961 26.6142 0.302989 26.0843 0.69369 25.6936C1.08439 25.3029 1.6143 25.0834 2.16683 25.0834H10.5002C11.0527 25.0834 11.5826 25.3029 11.9733 25.6936C12.364 26.0843 12.5835 26.6142 12.5835 27.1667V43.8334C12.5835 44.3859 12.364 44.9158 11.9733 45.3065C11.5826 45.6972 11.0527 45.9167 10.5002 45.9167Z" fill="black"/>
<path opacity="0.5" d="M27.1667 45.9167H18.8333C18.2808 45.9167 17.7509 45.6972 17.3602 45.3065C16.9695 44.9158 16.75 44.3859 16.75 43.8333V18.8333C16.75 18.2808 16.9695 17.7509 17.3602 17.3602C17.7509 16.9695 18.2808 16.75 18.8333 16.75H27.1667C27.7192 16.75 28.2491 16.9695 28.6398 17.3602C29.0305 17.7509 29.25 18.2808 29.25 18.8333V43.8333C29.25 44.3859 29.0305 44.9158 28.6398 45.3065C28.2491 45.6972 27.7192 45.9167 27.1667 45.9167Z" fill="black"/>
</svg>
