<svg width="18" height="15" viewBox="0 0 18 15" fill="none" xmlns="http://www.w3.org/2000/svg">
<path d="M0.75 14V13.25C0.75 11.8576 1.30312 10.5223 2.28769 9.53769C3.27226 8.55312 4.60761 8 6 8C7.39239 8 8.72774 8.55312 9.71231 9.53769C10.6969 10.5223 11.25 11.8576 11.25 13.25V14" stroke="black" stroke-width="1.3" stroke-linecap="round"/>
<path d="M9.75 9.5C9.75 8.50544 10.1451 7.55161 10.8483 6.84835C11.5516 6.14509 12.5054 5.75 13.5 5.75C13.9925 5.75 14.4801 5.847 14.9351 6.03545C15.39 6.22391 15.8034 6.50013 16.1517 6.84835C16.4999 7.19657 16.7761 7.60997 16.9645 8.06494C17.153 8.51991 17.25 9.00754 17.25 9.5V9.875" stroke="black" stroke-width="1.3" stroke-linecap="round"/>
<path d="M6 8C6.79565 8 7.55871 7.68393 8.12132 7.12132C8.68393 6.55871 9 5.79565 9 5C9 4.20435 8.68393 3.44129 8.12132 2.87868C7.55871 2.31607 6.79565 2 6 2C5.20435 2 4.44129 2.31607 3.87868 2.87868C3.31607 3.44129 3 4.20435 3 5C3 5.79565 3.31607 6.55871 3.87868 7.12132C4.44129 7.68393 5.20435 8 6 8ZM13.5 5.75C14.0967 5.75 14.669 5.51295 15.091 5.09099C15.5129 4.66903 15.75 4.09674 15.75 3.5C15.75 2.90326 15.5129 2.33097 15.091 1.90901C14.669 1.48705 14.0967 1.25 13.5 1.25C12.9033 1.25 12.331 1.48705 11.909 1.90901C11.4871 2.33097 11.25 2.90326 11.25 3.5C11.25 4.09674 11.4871 4.66903 11.909 5.09099C12.331 5.51295 12.9033 5.75 13.5 5.75Z" stroke="black" stroke-width="1.3" stroke-linecap="round" stroke-linejoin="round"/>
</svg>
