<svg width="25" height="25" viewBox="0 0 25 25" fill="none" xmlns="http://www.w3.org/2000/svg">
<path d="M17.6111 1C21.1378 1 24 3.86222 24 7.38889V17.6111C24 21.1378 21.1378 24 17.6111 24H7.38889C3.86222 24 1 21.1378 1 17.6111V7.38889C1 3.86222 3.86222 1 7.38889 1H12.5H17.6111Z" fill="white" stroke="white" stroke-width="2" stroke-linecap="round" stroke-linejoin="round"/>
<path d="M12.4999 7.38867C15.3238 7.38867 17.611 9.67589 17.611 12.4998C17.611 15.3237 15.3238 17.6109 12.4999 17.6109C9.67602 17.6109 7.38879 15.3237 7.38879 12.4998C7.38879 9.67589 9.67602 7.38867 12.4999 7.38867Z" stroke="#9B9999" stroke-width="2" stroke-linecap="round" stroke-linejoin="round"/>
<path d="M18.9688 7.46875C19.7627 7.46875 20.4062 6.82516 20.4062 6.03125C20.4062 5.23734 19.7627 4.59375 18.9688 4.59375C18.1748 4.59375 17.5312 5.23734 17.5312 6.03125C17.5312 6.82516 18.1748 7.46875 18.9688 7.46875Z" fill="#9B9999"/>
</svg>
