<?xml version="1.0" encoding="UTF-8"?> <svg xmlns="http://www.w3.org/2000/svg" width="86" height="44" viewBox="0 0 86 44" fill="none"><path fill-rule="evenodd" clip-rule="evenodd" d="M33.9846 29.0181L31.4182 38.0139H17.2257L22.9157 18.0642H14.3041L17.416 7.15504L75.8297 7.14128L75.3793 8.71743L19.8397 8.73234L17.9732 15.2778H26.5836L20.8936 35.2275H29.3381L31.1094 29.0181H33.9846ZM79.327 10.3062C84.3368 11.6552 83.5312 17.3369 81.2898 21.2154C76.5354 29.4414 62.0678 37.5883 44.2143 41.2545C21.3637 45.9485 1.60428 41.5275 0.0918262 31.3835C-0.255238 29.056 0.3913 26.6286 1.86545 24.2128C-3.84544 37.0824 13.7446 41.4495 27.7398 40.7498C43.9879 39.9364 57.1776 36.7428 70.691 28.7015C74.5157 26.4233 78.0444 23.4236 80.0826 20.1118C82.1256 16.7932 83.4279 12.4995 79.327 10.3062ZM25.3149 6.62622C30.1274 4.68069 35.4924 3.04833 41.2045 1.87482C64.0562 -2.81807 83.8156 1.60295 85.3281 11.7458C85.6751 14.0757 85.0298 16.5018 83.5545 18.9177C89.2642 6.04807 71.6765 1.67981 57.6802 2.38071C48.3233 2.84874 39.9799 4.10713 32.0055 6.62622H25.3149ZM6.09291 32.8231C1.99198 30.631 3.2955 26.3361 5.33842 23.0175C7.37554 19.7069 10.9054 16.706 14.7289 14.429L14.8032 14.3854L15.6575 11.3879C10.2693 14.6251 6.24148 18.2615 4.13008 21.914C1.88983 25.7924 1.08311 31.4741 6.09291 32.8231ZM72.5668 14.718L72.0259 21.2268H73.68L74.3868 10.3188H73.5267L69.1426 17.8463L68.6748 10.3188H67.8135L62.7399 21.2268H64.4137L67.4072 14.6985L67.9307 21.3737H68.4763L72.5668 14.718ZM58.957 16.6395C58.4927 16.636 58.0179 16.6051 57.556 16.5741L56.2838 21.2268H54.5508L57.5293 10.3188H57.6163C57.9959 10.3188 58.4091 10.2844 58.7887 10.2649C59.318 10.2374 59.8566 10.2098 60.3859 10.2098C62.6075 10.2098 64.2871 10.9486 63.6139 13.4149C63.4143 14.1445 63.0022 14.7616 62.4497 15.2801C61.9633 15.7378 61.3922 16.1129 60.7376 16.2804L62.5901 21.2268H60.6308L58.957 16.6395ZM51.7882 18.975H47.8776L46.4534 21.2268H44.4998L52.0656 10.1731H52.6251L53.8253 21.2268H51.9298L51.7882 18.975ZM43.4366 16.0659L42.0263 21.2268H43.7604L46.7378 10.3188H45.0048L43.8359 14.601H39.2799L40.4477 10.3188H38.7146L35.7362 21.2268H37.4703L38.8795 16.0659H43.4366ZM30.0392 17.1236L28.9179 21.2268H27.1849L30.1611 10.3234L30.2446 10.32C30.9283 10.2901 31.6387 10.2477 32.3212 10.2477C33.5609 10.2477 35.5562 10.3888 36.2457 11.6047C36.5765 12.1898 36.529 12.8792 36.3583 13.5032C35.6433 16.1233 33.706 17.1878 31.0432 17.1878C30.7194 17.1878 30.3665 17.1522 30.0392 17.1236ZM58.8456 11.8468L57.9506 15.1207C58.2443 15.1562 58.5403 15.1746 58.8363 15.1746C59.4909 15.1746 60.2791 15.1023 60.8537 14.7674C61.3899 14.4576 61.6731 13.9013 61.8298 13.3277C61.9471 12.9021 61.9633 12.4376 61.5664 12.1554C61.1021 11.8261 60.2071 11.7848 59.6581 11.7848C59.4004 11.7848 59.109 11.8193 58.8456 11.8468ZM51.3959 13.4436L48.711 17.6765H51.6408L51.3959 13.4436ZM31.4797 11.8456L30.4571 15.5876C30.731 15.6139 31.0363 15.6484 31.2963 15.6507C32.8331 15.6507 34.1285 15.1597 34.5557 13.5962C34.9886 12.0108 33.4657 11.7848 32.2261 11.7848C31.9823 11.7848 31.7246 11.8135 31.4797 11.8456ZM28.2888 23.2848H28.7496C29.0885 23.2848 29.3137 23.3031 29.424 23.3398C29.6155 23.3995 29.749 23.4947 29.8198 23.622C29.8953 23.7517 29.9127 23.9639 29.8802 24.2598H30.0044L30.4037 23.0496H26.6591L26.6219 23.162H26.7705C26.9156 23.162 27.0212 23.1884 27.0874 23.2458C27.1327 23.2836 27.1559 23.3387 27.1547 23.4087C27.1513 23.4511 27.1199 23.5635 27.0596 23.7494L26.1727 26.4405C26.1031 26.647 26.0497 26.7732 26.0091 26.8202C25.9557 26.8902 25.8953 26.9384 25.8292 26.9659C25.7363 27.0083 25.6249 27.0301 25.496 27.0301H25.3474L25.3103 27.1414H29.1768L29.8059 25.8406H29.6852C29.4553 26.2031 29.186 26.4726 28.8761 26.6493C28.565 26.8259 28.2017 26.9154 27.7827 26.9154H27.5169C27.388 26.9154 27.301 26.8994 27.2557 26.8661C27.2081 26.834 27.1826 26.7927 27.1791 26.7422C27.1745 26.6929 27.2093 26.5552 27.2836 26.3292L27.6643 25.1775C27.8767 25.1775 28.0311 25.2028 28.1263 25.2532C28.2226 25.3049 28.2876 25.4047 28.3236 25.5538C28.3584 25.7029 28.3503 25.8933 28.3016 26.1273H28.4246L29.1327 23.9857H29.0073C28.8668 24.3023 28.7055 24.5432 28.5256 24.7061C28.3433 24.869 28.1112 24.9504 27.8268 24.9504H27.7386L28.2888 23.2848ZM35.7954 22.9567H35.6654C35.6166 23.0588 35.5574 23.1334 35.4912 23.1815C35.4228 23.2286 35.3554 23.2515 35.2858 23.2515C35.2289 23.2515 35.114 23.2148 34.9341 23.1425C34.6265 23.0186 34.3131 22.9567 34.0008 22.9567C33.5737 22.9567 33.1384 23.0519 32.695 23.2458C32.2516 23.4385 31.8616 23.7115 31.5226 24.0602C31.1825 24.4101 30.9504 24.7806 30.8204 25.1706C30.6985 25.5412 30.6846 25.8899 30.7774 26.2191C30.8715 26.546 31.0746 26.7961 31.3868 26.9728C31.6991 27.1471 32.0961 27.2343 32.572 27.2343C32.9364 27.2343 33.2696 27.1816 33.5772 27.0737C33.8848 26.9659 34.2016 26.7927 34.5336 26.5529L34.6485 26.1996C34.2992 26.4761 33.9881 26.6688 33.7176 26.7824C33.4448 26.8948 33.1697 26.9498 32.8877 26.9498C32.5453 26.9498 32.2899 26.8741 32.1251 26.7193C31.9602 26.5667 31.8778 26.3384 31.8755 26.0379C31.8732 25.7373 31.9324 25.4035 32.0531 25.0376C32.175 24.6659 32.3572 24.3275 32.5963 24.0247C32.7809 23.7861 33.0154 23.5945 33.2963 23.4477C33.5783 23.2997 33.8592 23.2274 34.1378 23.2274C34.4721 23.2274 34.7391 23.3261 34.9376 23.5222C35.1384 23.7207 35.2243 24.004 35.1987 24.3734H35.3264L35.7954 22.9567ZM37.504 25.1741L37.0861 26.4405C37.0165 26.6504 36.9863 26.7812 36.9933 26.8328C37.0025 26.8856 37.0374 26.9315 37.0977 26.9693C37.1581 27.0106 37.2509 27.0301 37.3751 27.0301H37.5249L37.4877 27.1414H35.1488L35.1848 27.0301H35.3345C35.4634 27.0301 35.576 27.0083 35.6677 26.9659C35.735 26.9384 35.7954 26.8902 35.8476 26.8202C35.8882 26.7732 35.9428 26.647 36.0101 26.4405L36.8981 23.7494C36.9666 23.5406 36.9967 23.4087 36.9898 23.357C36.984 23.3054 36.9492 23.2584 36.8888 23.2205C36.8284 23.1815 36.7344 23.162 36.6102 23.162H36.4616L36.4988 23.0496H38.8377L38.7994 23.162H38.652C38.522 23.162 38.4105 23.1827 38.3177 23.224C38.2504 23.2538 38.19 23.2997 38.1343 23.3697C38.0936 23.4178 38.0414 23.5452 37.9741 23.7494L37.591 24.908H39.172L39.5539 23.7494C39.6224 23.5406 39.6525 23.4087 39.6467 23.357C39.6398 23.3054 39.6049 23.2584 39.5434 23.2205C39.4807 23.1815 39.3879 23.162 39.2614 23.162H39.1174L39.1534 23.0496H41.4912L41.454 23.162H41.3089C41.1766 23.162 41.0663 23.1827 40.9735 23.224C40.9085 23.2538 40.847 23.2997 40.7901 23.3697C40.7518 23.4178 40.6961 23.5452 40.6287 23.7494L39.7419 26.4405C39.6723 26.6504 39.6421 26.7812 39.6491 26.8328C39.656 26.8856 39.6897 26.9315 39.7512 26.9693C39.8127 27.0106 39.9067 27.0301 40.0321 27.0301H40.1772L40.1412 27.1414H37.8035L37.8406 27.0301H37.9857C38.118 27.0301 38.2295 27.0083 38.3212 26.9659C38.3862 26.9384 38.4477 26.8902 38.5057 26.8202C38.544 26.7732 38.5986 26.647 38.6647 26.4405L39.0838 25.1741H37.504ZM43.5178 23.0496H41.9311L41.8939 23.162C42.0286 23.1655 42.1284 23.1838 42.1876 23.2171C42.2503 23.2538 42.3095 23.3238 42.3687 23.4316L42.4279 23.5417L41.4761 26.429C41.4041 26.647 41.3054 26.7996 41.1778 26.8913C41.0524 26.982 40.8655 27.0278 40.6183 27.0301L40.5823 27.1414H42.1679L42.2039 27.0301H42.0982C41.9473 27.0301 41.8266 26.9888 41.7372 26.9062C41.6455 26.8225 41.6397 26.6631 41.7164 26.429L42.5741 23.8285L44.4766 27.2343H44.5892L45.7128 23.8285C45.7755 23.6358 45.8393 23.4981 45.9009 23.419C45.9624 23.3398 46.0332 23.2825 46.1098 23.2469C46.1864 23.2125 46.3234 23.1827 46.5195 23.162L46.5555 23.0496H45.0779L45.0419 23.162C45.2915 23.1574 45.4493 23.2136 45.5178 23.3307C45.5654 23.4167 45.5491 23.5819 45.4691 23.8285L44.8887 25.5871L43.5178 23.0496ZM49.5653 22.9923C50.2862 22.9682 50.8027 23.1586 51.1161 23.5624C51.426 23.9673 51.4829 24.4732 51.2821 25.08C51.1115 25.5997 50.7946 26.0551 50.3326 26.4508C49.7209 26.9739 49.0117 27.2343 48.2084 27.2343C47.4064 27.2343 46.8643 26.9854 46.588 26.4864C46.3721 26.0918 46.3512 25.6238 46.5311 25.0835C46.7308 24.4755 47.1231 23.9696 47.7081 23.5635C48.2943 23.1586 48.913 22.9682 49.5653 22.9923ZM49.5421 23.185C49.1336 23.185 48.7586 23.3765 48.4185 23.7597C48.1411 24.0717 47.9055 24.5237 47.7128 25.1098C47.4818 25.8084 47.447 26.3235 47.6037 26.6585C47.714 26.8913 47.938 27.0083 48.2758 27.0083C48.5009 27.0083 48.7076 26.9579 48.8921 26.8581C49.1266 26.7284 49.346 26.5231 49.5468 26.2398C49.7487 25.9576 49.9229 25.5893 50.0738 25.1351C50.2537 24.5925 50.3303 24.1887 50.3082 23.9203C50.2873 23.6519 50.2107 23.4626 50.0749 23.3502C49.9426 23.24 49.765 23.185 49.5421 23.185ZM55.8067 25.7041H55.6721C55.4608 26.0264 55.2716 26.2696 55.101 26.4348C54.9315 26.6011 54.7551 26.7204 54.5717 26.7961C54.3871 26.873 54.177 26.9108 53.9402 26.9108H53.5665C53.3552 26.9108 53.2264 26.9028 53.1764 26.8845C53.1091 26.8569 53.072 26.8133 53.0639 26.7548C53.0569 26.6998 53.0871 26.5644 53.1567 26.3556L54.0157 23.7494C54.083 23.5452 54.1376 23.4178 54.177 23.3697C54.2327 23.2997 54.2943 23.2538 54.3604 23.224C54.4544 23.1827 54.5647 23.162 54.6959 23.162H54.8909L54.9269 23.0496H52.5404L52.5044 23.162H52.653C52.7771 23.162 52.8712 23.1815 52.9315 23.2205C52.993 23.2584 53.0255 23.3054 53.0337 23.357C53.0406 23.4087 53.0093 23.5406 52.9408 23.7494L52.0528 26.4405C51.9855 26.647 51.931 26.7732 51.8915 26.8202C51.8369 26.8902 51.7777 26.9384 51.7104 26.9659C51.6176 27.0083 51.5061 27.0301 51.3761 27.0301H51.2275L51.1916 27.1414H55.1648L55.8067 25.7041ZM59.7742 22.9923C60.495 22.9682 61.0104 23.1586 61.3238 23.5624C61.6348 23.9673 61.6906 24.4732 61.4897 25.08C61.3191 25.5997 61.0034 26.0551 60.5414 26.4508C59.9285 26.9739 59.2205 27.2343 58.4172 27.2343C57.6128 27.2343 57.0731 26.9854 56.7957 26.4864C56.5809 26.0918 56.56 25.6238 56.7388 25.0835C56.9373 24.4755 57.3319 23.9696 57.917 23.5635C58.5043 23.1586 59.1218 22.9682 59.7742 22.9923ZM59.7498 23.185C59.3412 23.185 58.9663 23.3765 58.6262 23.7597C58.3499 24.0717 58.1143 24.5237 57.9204 25.1098C57.6906 25.8084 57.6558 26.3235 57.8125 26.6585C57.9216 26.8913 58.1456 27.0083 58.4822 27.0083C58.7097 27.0083 58.9164 26.9579 59.1009 26.8581C59.3354 26.7284 59.5536 26.5231 59.7544 26.2398C59.9564 25.9576 60.1317 25.5893 60.2814 25.1351C60.4613 24.5925 60.5391 24.1887 60.517 23.9203C60.4961 23.6519 60.4172 23.4626 60.2837 23.3502C60.1502 23.24 59.9738 23.185 59.7498 23.185ZM67.3167 22.9567H67.1937C67.1124 23.0714 67.0393 23.1494 66.972 23.1896C66.9046 23.232 66.8431 23.2515 66.7804 23.2515C66.741 23.2515 66.6249 23.2136 66.4334 23.1391C66.2419 23.0634 66.1003 23.0175 66.0097 23.0003C65.8414 22.9682 65.6452 22.9533 65.4235 22.9533C64.7073 22.9533 64.0422 23.1655 63.4282 23.5899C62.8165 24.0143 62.4079 24.534 62.2048 25.1489C62.0922 25.493 62.0666 25.805 62.1282 26.0815C62.1792 26.2971 62.2825 26.491 62.4392 26.6631C62.5959 26.8351 62.7991 26.9739 63.0452 27.0783C63.2901 27.1839 63.6255 27.2378 64.0504 27.2378C64.3823 27.2378 64.7143 27.2079 65.0416 27.1483C65.3701 27.0898 65.6963 27.0003 66.0225 26.8845L66.3022 26.0333C66.3521 25.8842 66.3904 25.7912 66.4241 25.7522C66.4821 25.6811 66.5506 25.6283 66.6249 25.5974C66.7015 25.5664 66.8222 25.5458 66.9905 25.5354L67.0265 25.4242H64.8536L64.8165 25.5354H64.9325C65.0393 25.5354 65.1252 25.5538 65.1891 25.5928C65.2517 25.6306 65.2877 25.6742 65.2958 25.7224C65.3051 25.7683 65.2831 25.8738 65.2308 26.0333L64.9499 26.8845C64.8165 26.9246 64.6899 26.9556 64.5704 26.9762C64.4497 26.998 64.3359 27.0083 64.2291 27.0083C63.9192 27.0083 63.6731 26.9395 63.4944 26.7996C63.3144 26.6608 63.2216 26.444 63.2193 26.148C63.2158 25.852 63.2785 25.5079 63.4073 25.1167C63.5129 24.7932 63.6638 24.4766 63.8577 24.1681C64.0515 23.8606 64.2883 23.6209 64.5681 23.45C64.8455 23.279 65.1531 23.1907 65.4874 23.1907C65.8368 23.1907 66.1258 23.294 66.3521 23.4993C66.5785 23.7046 66.7015 24.004 66.7189 24.3986H66.842L67.3167 22.9567ZM72.9069 23.0496H71.5407L71.5035 23.162C71.6997 23.1724 71.8297 23.201 71.8854 23.2515C71.9307 23.2882 71.9446 23.333 71.9272 23.3869C71.8947 23.4855 71.7299 23.6863 71.4293 23.9868L70.2174 25.2223L69.8553 23.8675C69.7763 23.5761 69.7485 23.3926 69.7717 23.3215C69.7856 23.2825 69.8216 23.2469 69.8843 23.2125C69.947 23.1781 70.0445 23.162 70.1745 23.162H70.2708L70.3068 23.0496H68.1617L68.1246 23.162C68.2674 23.1632 68.3718 23.1942 68.4368 23.2561C68.503 23.318 68.5819 23.5211 68.6783 23.8675L69.1519 25.6192L68.8802 26.4405C68.8141 26.647 68.7607 26.7732 68.7189 26.8202C68.6632 26.8902 68.6017 26.9384 68.5367 26.9659C68.445 27.0083 68.3335 27.0301 68.2024 27.0301H67.9667L67.9307 27.1414H70.4415L70.4786 27.0301H70.229C70.1083 27.0301 70.0201 27.0106 69.9609 26.9693C69.9029 26.9315 69.8704 26.8856 69.8634 26.8351C69.8553 26.7835 69.8889 26.6516 69.9574 26.4405L70.2836 25.4505L71.7415 23.9696C72.1037 23.5945 72.3532 23.3628 72.4913 23.279C72.59 23.2171 72.7165 23.1792 72.8697 23.162L72.9069 23.0496Z" fill="#1D446F"></path></svg> 