<svg width="24" height="16" viewBox="0 0 24 16" fill="none" xmlns="http://www.w3.org/2000/svg">
<path d="M23.1508 7.77574C23.1186 7.70374 22.3289 6.00066 20.5653 4.28559C18.9289 2.69605 16.1175 0.800049 12 0.800049C7.88257 0.800049 5.07115 2.69605 3.43479 4.28559C1.67124 6.00066 0.881538 7.70097 0.849267 7.77574C0.816817 7.84664 0.800049 7.92337 0.800049 8.00097C0.800049 8.07857 0.816817 8.15531 0.849267 8.2262C0.881538 8.29728 1.67124 10.0004 3.43479 11.7154C5.07115 13.305 7.88257 15.2 12 15.2C16.1175 15.2 18.9289 13.305 20.5653 11.7154C22.3289 10.0004 23.1186 8.30005 23.1508 8.2262C23.1833 8.15531 23.2 8.07857 23.2 8.00097C23.2 7.92337 23.1833 7.84664 23.1508 7.77574ZM12 14.0924C9.02157 14.0924 6.42086 13.0382 4.26911 10.9604C3.36709 10.0886 2.6038 9.09081 2.0044 8.00005C2.60362 6.90946 3.36694 5.912 4.26911 5.04066C6.42086 2.9619 9.02157 1.90774 12 1.90774C14.9785 1.90774 17.5792 2.9619 19.731 5.04066C20.6332 5.912 21.3965 6.90946 21.9957 8.00005C21.3911 9.12713 18.3595 14.0924 12 14.0924ZM12 3.7539C11.1365 3.7539 10.2924 4.00293 9.57434 4.4695C8.85633 4.93607 8.29671 5.59923 7.96625 6.37512C7.63578 7.151 7.54932 8.00476 7.71779 8.82843C7.88626 9.65211 8.30209 10.4087 8.91271 11.0025C9.52333 11.5964 10.3013 12.0008 11.1483 12.1646C11.9952 12.3285 12.8731 12.2444 13.6709 11.923C14.4687 11.6016 15.1506 11.0574 15.6304 10.3591C16.1101 9.66081 16.3662 8.83986 16.3662 8.00005C16.3647 6.87435 15.9042 5.79517 15.0857 4.99918C14.2672 4.20319 13.1576 3.75536 12 3.7539ZM12 11.1385C11.3618 11.1385 10.7378 10.9544 10.2071 10.6096C9.67643 10.2647 9.2628 9.77456 9.01854 9.20109C8.77429 8.62761 8.71038 7.99657 8.8349 7.38777C8.95942 6.77896 9.26678 6.21974 9.7181 5.78082C10.1694 5.3419 10.7445 5.04299 11.3705 4.92189C11.9965 4.80079 12.6453 4.86295 13.235 5.10049C13.8247 5.33803 14.3287 5.7403 14.6833 6.25641C15.0379 6.77253 15.2272 7.37932 15.2272 8.00005C15.2272 8.83242 14.8872 9.6307 14.282 10.2193C13.6768 10.8079 12.8559 11.1385 12 11.1385Z" fill="#B0AAAA"/>
</svg>
