<svg width="14" height="15" viewBox="0 0 14 15" fill="none" xmlns="http://www.w3.org/2000/svg">
<path d="M7 0.5C6.25832 0.5 5.5333 0.719934 4.91661 1.13199C4.29993 1.54404 3.81928 2.12971 3.53545 2.81494C3.25162 3.50016 3.17736 4.25416 3.32206 4.98159C3.46675 5.70902 3.8239 6.3772 4.34835 6.90165C4.8728 7.4261 5.54098 7.78325 6.26841 7.92795C6.99584 8.07264 7.74984 7.99838 8.43506 7.71455C9.12029 7.43072 9.70596 6.95007 10.118 6.33339C10.5301 5.7167 10.75 4.99168 10.75 4.25C10.75 3.25544 10.3549 2.30161 9.65165 1.59835C8.94839 0.895088 7.99456 0.5 7 0.5ZM7 6.5C6.55499 6.5 6.11998 6.36804 5.74997 6.12081C5.37996 5.87357 5.09157 5.52217 4.92127 5.11104C4.75097 4.6999 4.70642 4.2475 4.79323 3.81105C4.88005 3.37459 5.09434 2.97368 5.40901 2.65901C5.72368 2.34434 6.12459 2.13005 6.56105 2.04323C6.9975 1.95642 7.4499 2.00097 7.86104 2.17127C8.27217 2.34157 8.62357 2.62996 8.87081 2.99997C9.11804 3.36998 9.25 3.80499 9.25 4.25C9.25 4.84674 9.01295 5.41903 8.59099 5.84099C8.16903 6.26295 7.59674 6.5 7 6.5ZM13.75 14.75V14C13.75 12.6076 13.1969 11.2723 12.2123 10.2877C11.2277 9.30312 9.89239 8.75 8.5 8.75H5.5C4.10761 8.75 2.77226 9.30312 1.78769 10.2877C0.803123 11.2723 0.25 12.6076 0.25 14V14.75H1.75V14C1.75 13.0054 2.14509 12.0516 2.84835 11.3483C3.55161 10.6451 4.50544 10.25 5.5 10.25H8.5C9.49456 10.25 10.4484 10.6451 11.1517 11.3483C11.8549 12.0516 12.25 13.0054 12.25 14V14.75H13.75Z" fill="black"/>
</svg>
