<svg width="18" height="18" viewBox="0 0 18 18" fill="none" xmlns="http://www.w3.org/2000/svg">
<path d="M8.00004 11.102L13.5152 5.5874L14.3636 6.4358L8.00004 12.7994L4.18164 8.981L5.03004 8.1326L8.00004 11.102Z" fill="black"/>
<path fill-rule="evenodd" clip-rule="evenodd" d="M15 2.39995H2.99995C2.84082 2.39995 2.68821 2.46317 2.57569 2.57569C2.46317 2.68821 2.39995 2.84082 2.39995 2.99995V15C2.39995 15.1591 2.46317 15.3117 2.57569 15.4242C2.68821 15.5367 2.84082 15.6 2.99995 15.6H15C15.1591 15.6 15.3117 15.5367 15.4242 15.4242C15.5367 15.3117 15.6 15.1591 15.6 15V2.99995C15.6 2.84082 15.5367 2.68821 15.4242 2.57569C15.3117 2.46317 15.1591 2.39995 15 2.39995ZM2.99995 1.19995C2.52256 1.19995 2.06472 1.38959 1.72716 1.72716C1.38959 2.06472 1.19995 2.52256 1.19995 2.99995V15C1.19995 15.4773 1.38959 15.9352 1.72716 16.2727C2.06472 16.6103 2.52256 16.8 2.99995 16.8H15C15.4773 16.8 15.9352 16.6103 16.2727 16.2727C16.6103 15.9352 16.8 15.4773 16.8 15V2.99995C16.8 2.52256 16.6103 2.06472 16.2727 1.72716C15.9352 1.38959 15.4773 1.19995 15 1.19995H2.99995Z" fill="black"/>
</svg>
