<svg width="16" height="16" viewBox="0 0 16 16" fill="none" xmlns="http://www.w3.org/2000/svg">
<path d="M4.875 1.125H2.79167C1.87119 1.125 1.125 1.87119 1.125 2.79167V4.875C1.125 5.79547 1.87119 6.54167 2.79167 6.54167H4.875C5.79547 6.54167 6.54167 5.79547 6.54167 4.875V2.79167C6.54167 1.87119 5.79547 1.125 4.875 1.125Z" stroke="black" stroke-width="1.3" stroke-linecap="round" stroke-linejoin="round"/>
<path d="M10.9884 1.1817C11.301 0.869251 11.7248 0.693726 12.1667 0.693726C12.6087 0.693726 13.0325 0.869251 13.3451 1.1817L14.8184 2.65504C15.1309 2.96758 15.3064 3.39143 15.3064 3.83337C15.3064 4.27531 15.1309 4.69916 14.8184 5.0117L13.3451 6.48504C13.0325 6.79749 12.6087 6.97301 12.1667 6.97301C11.7248 6.97301 11.301 6.79749 10.9884 6.48504L9.51508 5.0117C9.20263 4.69916 9.0271 4.27531 9.0271 3.83337C9.0271 3.39143 9.20263 2.96758 9.51508 2.65504L10.9884 1.1817Z" stroke="black" stroke-width="1.3" stroke-linecap="round" stroke-linejoin="round"/>
<path d="M5.29167 9.45837H2.375C1.68464 9.45837 1.125 10.018 1.125 10.7084V13.625C1.125 14.3154 1.68464 14.875 2.375 14.875H5.29167C5.98202 14.875 6.54167 14.3154 6.54167 13.625V10.7084C6.54167 10.018 5.98202 9.45837 5.29167 9.45837Z" stroke="black" stroke-width="1.3" stroke-linecap="round" stroke-linejoin="round"/>
<path d="M13.2083 9.45837H11.1249C10.2044 9.45837 9.45825 10.2046 9.45825 11.125V13.2084C9.45825 14.1288 10.2044 14.875 11.1249 14.875H13.2083C14.1287 14.875 14.8749 14.1288 14.8749 13.2084V11.125C14.8749 10.2046 14.1287 9.45837 13.2083 9.45837Z" stroke="black" stroke-width="1.3" stroke-linecap="round" stroke-linejoin="round"/>
</svg>
