<svg width="18" height="18" viewBox="0 0 18 18" fill="none" xmlns="http://www.w3.org/2000/svg">
<path d="M1 9C1 10.0506 1.20693 11.0909 1.60896 12.0615C2.011 13.0321 2.60028 13.914 3.34315 14.6569C4.08601 15.3997 4.96793 15.989 5.93853 16.391C6.90914 16.7931 7.94943 17 9 17C10.0506 17 11.0909 16.7931 12.0615 16.391C13.0321 15.989 13.914 15.3997 14.6569 14.6569C15.3997 13.914 15.989 13.0321 16.391 12.0615C16.7931 11.0909 17 10.0506 17 9C17 7.94943 16.7931 6.90914 16.391 5.93853C15.989 4.96793 15.3997 4.08601 14.6569 3.34315C13.914 2.60028 13.0321 2.011 12.0615 1.60896C11.0909 1.20693 10.0506 1 9 1C7.94943 1 6.90914 1.20693 5.93853 1.60896C4.96793 2.011 4.08601 2.60028 3.34315 3.34315C2.60028 4.08601 2.011 4.96793 1.60896 5.93853C1.20693 6.90914 1 7.94943 1 9Z" stroke="black" stroke-width="1.3" stroke-linecap="round" stroke-linejoin="round"/>
<path d="M6.375 6.48445C6.375 6.48445 6.41437 5.58211 7.29211 4.85859C7.81328 4.42902 8.43918 4.30461 9 4.29695C9.51215 4.29066 9.96988 4.37734 10.2436 4.51078C10.7114 4.73992 11.625 5.29773 11.625 6.48445C11.625 7.73324 10.8271 8.29926 9.92012 8.92297C9.01312 9.54668 8.78125 10.1584 8.78125 10.8595" stroke="black" stroke-width="1.3" stroke-miterlimit="10" stroke-linecap="round"/>
<path d="M8.78125 13.8123C9.2645 13.8123 9.65625 13.4205 9.65625 12.9373C9.65625 12.454 9.2645 12.0623 8.78125 12.0623C8.298 12.0623 7.90625 12.454 7.90625 12.9373C7.90625 13.4205 8.298 13.8123 8.78125 13.8123Z" fill="black"/>
</svg>
