<svg width="19" height="20" viewBox="0 0 19 20" fill="none" xmlns="http://www.w3.org/2000/svg">
<path d="M4.51163 13.25H8.01163M4.51163 8.875H11.5116M7.57413 18.5H8.44913M5.38401 18.5C4.37776 18.4781 3.70051 18.5 2.82639 18.3031C1.90764 18.0625 1.33889 17.4937 1.14289 16.3562C0.94601 15.6125 1.00901 12.3085 1.01164 9.15937C1.01339 6.7155 1.02914 4.49912 1.23039 4.04062C1.51476 3.05625 2.17014 2.35625 4.20363 2.33438M12.8381 2.33438C13.5381 2.4 15.3669 2.33437 15.7239 4.34687C15.9181 5.44062 15.877 6.99375 15.877 8.85313M5.97376 4.0625C6.89251 4.08438 9.84301 4.0625 10.8493 4.0625C11.8546 4.0625 12.3858 3.23475 12.3796 2.46562C12.3726 1.68162 11.6796 1.07 11.0015 1H5.95276C5.14338 1.04375 4.59651 1.7 4.50901 2.35625C4.42151 3.25312 5.07776 4.01875 5.97376 4.0625ZM14.806 11.8281C13.6029 13.0531 11.2859 15.2406 11.2859 15.3938C11.0995 15.6536 10.9359 16.1813 10.8265 16.925C10.69 17.6145 10.5255 18.2156 10.718 18.3906C10.9105 18.5656 11.6341 18.4186 12.4006 18.2594C13.0131 18.1938 13.5819 17.975 13.8654 17.7562C14.281 17.3887 17.1011 14.5406 17.4293 14.1687C17.669 13.8406 17.6918 13.2281 17.4818 12.8563C17.3636 12.5938 16.6199 11.8938 16.3793 11.6969C16.1373 11.5477 15.8539 11.4799 15.5706 11.5035C15.2873 11.5271 15.0199 11.6409 14.806 11.8281Z" stroke="black" stroke-width="1.5" stroke-linecap="round" stroke-linejoin="round"/>
</svg>
