<svg width="42" height="42" viewBox="0 0 42 42" fill="none" xmlns="http://www.w3.org/2000/svg">
<path d="M20.979 0.166748C9.479 0.166748 0.166504 9.50008 0.166504 21.0001C0.166504 32.5001 9.479 41.8334 20.979 41.8334C32.4998 41.8334 41.8332 32.5001 41.8332 21.0001C41.8332 9.50008 32.4998 0.166748 20.979 0.166748ZM20.9998 37.6667C11.7915 37.6667 4.33317 30.2084 4.33317 21.0001C4.33317 11.7917 11.7915 4.33341 20.9998 4.33341C30.2082 4.33341 37.6665 11.7917 37.6665 21.0001C37.6665 30.2084 30.2082 37.6667 20.9998 37.6667ZM20.5415 10.5834H20.4165C19.5832 10.5834 18.9165 11.2501 18.9165 12.0834V21.9167C18.9165 22.6459 19.2915 23.3334 19.9373 23.7084L28.5832 28.8959C29.2915 29.3126 30.2082 29.1042 30.6248 28.3959C30.7295 28.2272 30.799 28.0392 30.8295 27.8431C30.8599 27.6469 30.8505 27.4466 30.8019 27.2542C30.7533 27.0617 30.6665 26.881 30.5466 26.7228C30.4267 26.5646 30.2762 26.4322 30.104 26.3334L22.0415 21.5417V12.0834C22.0415 11.2501 21.3748 10.5834 20.5415 10.5834Z" fill="black"/>
</svg>
