<svg width="26" height="16" viewBox="0 0 26 16" fill="none" xmlns="http://www.w3.org/2000/svg">
<path d="M15.6 6.33208V1.40412C15.6 0.293466 15.4037 0.0708007 14.326 0.0708007L11.271 0.000134717C10.3194 0.000134717 9.84358 0.000134705 9.65119 0.316132C9.45879 0.632129 9.67199 1.06546 10.0971 1.92945C10.3337 2.40945 10.4611 2.75744 10.4611 3.29611V6.84274C10.4611 7.96273 10.4611 8.52406 10.0451 8.69073C9.62909 8.85606 9.28459 8.48006 8.59299 7.72807C6.903 5.88275 6.02161 3.57877 5.44311 1.06679C5.32351 0.546797 5.26371 0.286799 5.08431 0.1428C4.90491 -0.00119878 4.64881 0.000134717 4.13922 0.000134717H1.27923C0.652638 0.000134717 0.339339 0.000134825 0.14304 0.2268C-0.0519585 0.454798 -0.0142586 0.745462 0.0611409 1.32546C0.747537 6.56141 5.23641 15.1467 13.5291 15.9653C14.9981 16.1093 15.6 15.7027 15.6 14.052C15.6 13.116 15.5805 11.604 16.7283 11.4054C17.3302 11.3014 17.7345 11.5214 18.4066 12.0987C19.5714 13.1014 20.1824 14.3253 20.6075 15.2547C20.8896 15.8707 21.0989 16 21.7619 16H24.4581C25.8205 16 26.191 15.6587 25.5839 14.3467C24.8978 12.8753 23.9264 11.5628 22.7291 10.4894C21.9023 9.76005 21.4902 9.39606 21.4681 9.12672C21.4434 8.85873 21.7463 8.47873 22.3521 7.71874C23.5221 6.24941 25.1159 3.9441 25.8595 1.49746C26.2287 0.284133 25.8816 0.000134717 24.6843 0.000134717H22.2624C21.0885 0.000134717 21.0898 -0.0411983 20.8129 1.32412C20.3631 3.53877 18.8915 5.66809 17.5083 7.11741C16.8518 7.8054 16.4553 8.22007 16.0458 8.05073C15.6364 7.8814 15.6 7.36674 15.6 6.33208Z" fill="white"/>
</svg>
